<mxfile host="app.diagrams.net" modified="2023-11-16T20:42:50.158Z" agent="Mozilla/5.0 (Windows NT 10.0; Win64; x64) AppleWebKit/537.36 (KHTML, like Gecko) Chrome/119.0.0.0 Safari/537.36" version="22.1.2" etag="5neVP78smPiOXWfw85TZ" type="github">
  <diagram name="Page-1" id="SrKvUDXG3FJgTy41JY_f">
    <mxGraphModel>
      <root>
        <mxCell id="0" />
        <mxCell id="1" parent="0" />
      </root>
    </mxGraphModel>
  </diagram>
</mxfile>
